<svg width="234" height="51" viewBox="0 0 234 51" fill="none" xmlns="http://www.w3.org/2000/svg">
<g filter="url(#filter0_d_2_3)">
<path d="M61.3135 23.416C61.3135 26.1276 60.9372 28.4186 60.1846 30.2891C59.443 32.1595 58.3529 33.5817 56.9141 34.5557C55.4863 35.5186 53.7321 36 51.6514 36H45.9404V11.7285H52C53.9922 11.7285 55.68 12.1768 57.0635 13.0732C58.458 13.9697 59.515 15.2868 60.2344 17.0244C60.9538 18.762 61.3135 20.8926 61.3135 23.416ZM56.5156 23.6318C56.5156 21.8167 56.3441 20.3281 56.001 19.166C55.6579 18.0039 55.1432 17.1462 54.457 16.5928C53.7819 16.0394 52.9408 15.7627 51.9336 15.7627H50.6055V31.916H51.6182C53.3005 31.916 54.5345 31.2354 55.3203 29.874C56.1172 28.5127 56.5156 26.432 56.5156 23.6318ZM71.1582 17.0576C72.9622 17.0576 74.3346 17.6165 75.2754 18.7344C76.2272 19.8411 76.7031 21.4958 76.7031 23.6982V36H73.4658L72.752 33.5098H72.6523C72.276 34.1406 71.8721 34.6663 71.4404 35.0869C71.0199 35.5075 70.5384 35.8174 69.9961 36.0166C69.4538 36.2269 68.8174 36.332 68.0869 36.332C67.0576 36.332 66.222 36.0553 65.5801 35.502C64.9492 34.9486 64.4899 34.2292 64.2021 33.3438C63.9144 32.4583 63.7705 31.5176 63.7705 30.5215C63.7705 28.5846 64.3073 27.1182 65.3809 26.1221C66.4544 25.126 67.9818 24.5892 69.9629 24.5117L72.2705 24.4121V23.665C72.2705 22.6468 72.11 21.8887 71.7891 21.3906C71.4792 20.8815 70.9645 20.627 70.2451 20.627C69.7139 20.627 69.1328 20.7321 68.502 20.9424C67.8711 21.1527 67.1794 21.4792 66.4268 21.9219L65.1982 18.6182C66.0394 18.109 66.9635 17.7217 67.9707 17.4561C68.9779 17.1904 70.0404 17.0576 71.1582 17.0576ZM72.2705 27.3672L71.0254 27.4336C70.0846 27.4779 69.3818 27.7435 68.917 28.2305C68.4632 28.7064 68.2363 29.4036 68.2363 30.3223C68.2363 31.1523 68.3747 31.7721 68.6514 32.1816C68.9391 32.5911 69.3542 32.7959 69.8965 32.7959C70.5938 32.7959 71.1637 32.4583 71.6064 31.7832C72.0492 31.1081 72.2705 30.2005 72.2705 29.0605V27.3672ZM88.8223 17.0576C90.3939 17.0576 91.6003 17.6276 92.4414 18.7676C93.2936 19.8965 93.7197 21.54 93.7197 23.6982V36H89.3037V24.9766C89.3037 23.6706 89.1709 22.6855 88.9053 22.0215C88.6396 21.3464 88.1361 21.0088 87.3945 21.0088C86.4648 21.0088 85.8118 21.4626 85.4355 22.3701C85.0703 23.2777 84.8877 24.8382 84.8877 27.0518V36H80.4717V17.4062H83.9746L84.4395 19.7803H84.7217C84.9984 19.1937 85.3359 18.7012 85.7344 18.3027C86.1328 17.8932 86.5921 17.5833 87.1123 17.373C87.6325 17.1628 88.2025 17.0576 88.8223 17.0576Z" fill="black"/>
<path d="M111.898 22.3369H119.485V34.9873C118.334 35.4411 117.15 35.7786 115.933 36C114.726 36.2214 113.498 36.332 112.247 36.332C110.244 36.332 108.567 35.8229 107.217 34.8047C105.878 33.7754 104.865 32.3255 104.179 30.4551C103.504 28.5846 103.166 26.3656 103.166 23.7979C103.166 21.2633 103.548 19.0719 104.312 17.2236C105.086 15.3643 106.215 13.9255 107.698 12.9072C109.181 11.889 110.991 11.3799 113.127 11.3799C114.3 11.3799 115.396 11.5238 116.414 11.8115C117.432 12.0882 118.345 12.4535 119.153 12.9072L117.792 16.7588C117.095 16.3161 116.37 15.9785 115.617 15.7461C114.876 15.5137 114.101 15.3975 113.293 15.3975C112.131 15.3975 111.157 15.7295 110.371 16.3936C109.585 17.0465 108.993 18.0094 108.595 19.2822C108.196 20.5439 107.997 22.0934 107.997 23.9307C107.997 25.624 108.158 27.1016 108.479 28.3633C108.811 29.6139 109.309 30.5824 109.973 31.2686C110.648 31.9548 111.506 32.2979 112.546 32.2979C112.978 32.2979 113.393 32.2646 113.791 32.1982C114.201 32.1318 114.582 32.0378 114.937 31.916V26.2715H111.898V22.3369ZM136.602 26.6533C136.602 27.9482 136.469 29.1768 136.203 30.3389C135.949 31.501 135.539 32.5303 134.975 33.4268C134.421 34.3232 133.691 35.0316 132.783 35.5518C131.887 36.0719 130.791 36.332 129.496 36.332C128.29 36.332 127.244 36.0775 126.358 35.5684C125.473 35.0592 124.743 34.362 124.167 33.4766C123.591 32.5801 123.16 31.5508 122.872 30.3887C122.595 29.2155 122.457 27.9704 122.457 26.6533C122.457 24.7829 122.701 23.1283 123.188 21.6895C123.686 20.2396 124.455 19.1051 125.495 18.2861C126.547 17.4671 127.902 17.0576 129.562 17.0576C130.99 17.0576 132.23 17.4284 133.281 18.1699C134.344 18.9115 135.163 19.9961 135.738 21.4238C136.314 22.8405 136.602 24.5837 136.602 26.6533ZM126.939 26.7197C126.939 28.0036 127.028 29.0827 127.205 29.957C127.393 30.8314 127.675 31.4899 128.052 31.9326C128.439 32.3753 128.932 32.5967 129.529 32.5967C130.138 32.5967 130.625 32.3809 130.99 31.9492C131.367 31.5065 131.638 30.8424 131.804 29.957C131.981 29.0716 132.069 27.9704 132.069 26.6533C132.069 25.3473 131.981 24.2627 131.804 23.3994C131.638 22.5361 131.367 21.8887 130.99 21.457C130.625 21.0254 130.138 20.8096 129.529 20.8096C128.622 20.8096 127.963 21.291 127.554 22.2539C127.144 23.2168 126.939 24.7054 126.939 26.7197ZM148.09 17.0576C149.661 17.0576 150.868 17.6276 151.709 18.7676C152.561 19.8965 152.987 21.54 152.987 23.6982V36H148.571V24.9766C148.571 23.6706 148.438 22.6855 148.173 22.0215C147.907 21.3464 147.404 21.0088 146.662 21.0088C145.732 21.0088 145.079 21.4626 144.703 22.3701C144.338 23.2777 144.155 24.8382 144.155 27.0518V36H139.739V17.4062H143.242L143.707 19.7803H143.989C144.266 19.1937 144.604 18.7012 145.002 18.3027C145.4 17.8932 145.86 17.5833 146.38 17.373C146.9 17.1628 147.47 17.0576 148.09 17.0576ZM161.537 44.168C159.479 44.168 157.885 43.7142 156.756 42.8066C155.627 41.8991 155.062 40.6152 155.062 38.9551C155.062 37.8704 155.372 36.9408 155.992 36.166C156.623 35.3913 157.453 34.86 158.482 34.5723C157.962 34.3509 157.531 34.0078 157.188 33.543C156.844 33.0671 156.673 32.5192 156.673 31.8994C156.673 31.1911 156.828 30.6045 157.138 30.1396C157.459 29.6748 157.89 29.1989 158.433 28.7119C157.735 28.2581 157.176 27.5498 156.756 26.5869C156.335 25.624 156.125 24.5671 156.125 23.416C156.125 22.0879 156.363 20.9535 156.839 20.0127C157.326 19.0719 158.029 18.3581 158.947 17.8711C159.877 17.373 161.006 17.124 162.334 17.124C162.743 17.124 163.098 17.1462 163.396 17.1904C163.706 17.2236 163.972 17.2734 164.193 17.3398C164.426 17.3952 164.625 17.4561 164.791 17.5225H170.17V20.1787L167.979 20.6602C168.189 21.0697 168.338 21.5013 168.427 21.9551C168.515 22.4089 168.56 22.9069 168.56 23.4492C168.56 25.4414 168.023 26.9854 166.949 28.0811C165.876 29.1768 164.354 29.7246 162.384 29.7246C161.775 29.7246 161.327 29.6748 161.039 29.5752C160.862 29.7412 160.69 29.9404 160.524 30.1729C160.369 30.4053 160.292 30.6986 160.292 31.0527C160.292 31.3184 160.358 31.5452 160.491 31.7334C160.635 31.9105 160.851 32.0433 161.139 32.1318C161.426 32.2204 161.786 32.2646 162.218 32.2646H165.306C166.789 32.2646 167.929 32.6797 168.726 33.5098C169.522 34.3398 169.921 35.6071 169.921 37.3115C169.921 39.514 169.207 41.2074 167.779 42.3916C166.363 43.5758 164.282 44.168 161.537 44.168ZM161.853 40.8643C162.749 40.8643 163.485 40.7536 164.061 40.5322C164.636 40.3109 165.062 39.9844 165.339 39.5527C165.616 39.1322 165.754 38.6175 165.754 38.0088C165.754 37.5218 165.682 37.151 165.538 36.8965C165.394 36.653 165.145 36.4814 164.791 36.3818C164.448 36.2933 163.972 36.249 163.363 36.249H160.939C160.596 36.249 160.292 36.332 160.026 36.498C159.761 36.6751 159.556 36.9352 159.412 37.2783C159.268 37.6214 159.196 38.0641 159.196 38.6064C159.196 39.348 159.434 39.9069 159.91 40.2832C160.386 40.6706 161.034 40.8643 161.853 40.8643ZM162.367 26.6533C162.932 26.6533 163.363 26.3822 163.662 25.8398C163.961 25.2975 164.11 24.5007 164.11 23.4492C164.11 22.3314 163.961 21.5068 163.662 20.9756C163.363 20.4333 162.926 20.1621 162.351 20.1621C161.775 20.1621 161.338 20.4388 161.039 20.9922C160.74 21.5345 160.591 22.348 160.591 23.4326C160.591 24.484 160.735 25.2865 161.022 25.8398C161.31 26.3822 161.758 26.6533 162.367 26.6533ZM185.809 26.6533C185.809 27.9482 185.676 29.1768 185.41 30.3389C185.156 31.501 184.746 32.5303 184.182 33.4268C183.628 34.3232 182.898 35.0316 181.99 35.5518C181.094 36.0719 179.998 36.332 178.703 36.332C177.497 36.332 176.451 36.0775 175.565 35.5684C174.68 35.0592 173.95 34.362 173.374 33.4766C172.799 32.5801 172.367 31.5508 172.079 30.3887C171.802 29.2155 171.664 27.9704 171.664 26.6533C171.664 24.7829 171.908 23.1283 172.395 21.6895C172.893 20.2396 173.662 19.1051 174.702 18.2861C175.754 17.4671 177.109 17.0576 178.77 17.0576C180.197 17.0576 181.437 17.4284 182.488 18.1699C183.551 18.9115 184.37 19.9961 184.945 21.4238C185.521 22.8405 185.809 24.5837 185.809 26.6533ZM176.146 26.7197C176.146 28.0036 176.235 29.0827 176.412 29.957C176.6 30.8314 176.882 31.4899 177.259 31.9326C177.646 32.3753 178.139 32.5967 178.736 32.5967C179.345 32.5967 179.832 32.3809 180.197 31.9492C180.574 31.5065 180.845 30.8424 181.011 29.957C181.188 29.0716 181.276 27.9704 181.276 26.6533C181.276 25.3473 181.188 24.2627 181.011 23.3994C180.845 22.5361 180.574 21.8887 180.197 21.457C179.832 21.0254 179.345 20.8096 178.736 20.8096C177.829 20.8096 177.17 21.291 176.761 22.2539C176.351 23.2168 176.146 24.7054 176.146 26.7197Z" fill="#E8B94A"/>
</g>
<defs>
<filter id="filter0_d_2_3" x="42.9404" y="11.3799" width="145.868" height="38.7881" filterUnits="userSpaceOnUse" color-interpolation-filters="sRGB">
<feFlood flood-opacity="0" result="BackgroundImageFix"/>
<feColorMatrix in="SourceAlpha" type="matrix" values="0 0 0 0 0 0 0 0 0 0 0 0 0 0 0 0 0 0 127 0" result="hardAlpha"/>
<feOffset dy="3"/>
<feGaussianBlur stdDeviation="1.5"/>
<feComposite in2="hardAlpha" operator="out"/>
<feColorMatrix type="matrix" values="0 0 0 0 0 0 0 0 0 0 0 0 0 0 0 0 0 0 0.25 0"/>
<feBlend mode="normal" in2="BackgroundImageFix" result="effect1_dropShadow_2_3"/>
<feBlend mode="normal" in="SourceGraphic" in2="effect1_dropShadow_2_3" result="shape"/>
</filter>
</defs>
</svg>
